<?xml version="1.0" encoding="UTF-8"?>
<svg id="Layer_1" data-name="Layer 1" xmlns="http://www.w3.org/2000/svg" viewBox="0 0 303.62 303.62">
  <defs>
    <style>
      .cls-1 {
        fill: #fff;
      }

      .cls-2 {
        fill: #635aa7;
      }

      .cls-3 {
        fill: #645ba7;
      }
    </style>
  </defs>
  <polygon class="cls-2" points="256.66 183.41 256.66 153.75 228.27 153.75 228.27 211.8 256.66 183.41"/>
  <polygon class="cls-2" points="120.41 207.83 137.5 198.16 137.5 273.95 120.41 256.86 120.41 207.83"/>
  <polygon class="cls-2" points="181.56 171.55 181.56 258.51 165.37 274.69 165.37 182.78 181.56 171.55"/>
  <polygon class="cls-1" points="181.56 171.55 181.56 258.51 165.37 274.69 165.37 182.78 181.56 171.55"/>
  <polygon class="cls-1" points="137.5 198.16 137.5 273.95 120.41 256.86 120.41 207.83 137.5 198.16"/>
  <path class="cls-3" d="m242.61,90.81l39.39-30.12-.85,36.77,18.63-50.22-62.31,6.8,16.81,8.11-21.81,18.51L151.81,0,0,151.81l151.81,151.81,151.81-151.81-61-61Zm-198.31,60.63v29.32l-28.95-28.95L151.81,15.36l72.32,72.32-58.76,49.83v-49.71h-29.18v74.45l-14.67,12.43v-55.17h-31.82v82.16l-13.25,11.23v-61.46h-32.14Zm76.1,105.42v-49.03l17.09-9.67v75.79l-17.09-17.09Zm44.96,17.83v-91.92l16.18-11.23v86.97l-16.18,16.18Zm47.89-47.89v-94.02l-127.09,89.84-6.88-6.88,154.62-118.28,54.35,54.35-74.99,74.99Z"/>
</svg>